<?xml version="1.0" standalone="no"?>
<!DOCTYPE svg PUBLIC "-//W3C//DTD SVG 20010904//EN"
 "http://www.w3.org/TR/2001/REC-SVG-20010904/DTD/svg10.dtd">
<svg version="1.0" xmlns="http://www.w3.org/2000/svg"
 width="1200.000000pt" height="1200.000000pt" viewBox="0 0 1200.000000 1200.000000"
 preserveAspectRatio="xMidYMid meet">

<g transform="translate(0.000000,1200.000000) scale(0.100000,-0.100000)"
fill="#000000" stroke="none">
<path d="M5469 7901 l-29 -29 0 -597 0 -597 29 -29 29 -29 439 0 440 0 21 23
c16 17 22 36 22 71 0 37 5 52 22 66 20 15 23 30 28 109 l5 92 40 22 40 23 3
369 c3 408 5 395 -60 395 -27 0 -28 2 -28 45 0 35 -6 52 -25 70 l-24 25 -461
0 -462 0 -29 -29z m935 -17 c14 -5 16 -62 16 -539 0 -477 -2 -534 -16 -539 -9
-3 -166 -6 -350 -6 l-334 0 -2 423 c-3 414 -3 422 -23 422 -20 0 -20 -8 -23
-422 l-2 -423 -95 0 -95 0 0 525 c0 512 1 526 20 545 19 19 33 20 454 20 239
0 441 -3 450 -6z m116 -252 c0 -106 -1 -109 -25 -120 l-25 -12 0 120 0 120 25
0 25 0 0 -108z m0 -252 c0 -78 -2 -91 -19 -100 -11 -5 -22 -10 -25 -10 -3 0
-6 40 -6 90 0 74 3 91 18 99 9 6 20 11 25 11 4 0 7 -40 7 -90z m-2 -236 c-3
-77 -6 -88 -25 -102 l-23 -14 0 95 c0 95 3 104 38 106 10 1 12 -20 10 -85z
m-138 -422 c0 -21 -5 -43 -12 -50 -9 -9 -118 -12 -430 -12 -405 0 -419 1 -438
20 -24 24 -25 38 -3 62 15 17 42 18 450 18 l433 0 0 -38z"/>
<path d="M5542 7828 c-18 -22 2 -40 39 -36 26 2 34 8 34 23 0 15 -8 21 -31 23
-17 2 -36 -3 -42 -10z"/>
<path d="M5681 7826 c-7 -8 -11 -37 -9 -68 3 -45 6 -53 23 -53 17 0 20 8 23
56 3 62 -14 92 -37 65z"/>
<path d="M5535 7710 c-10 -16 14 -40 39 -40 31 0 50 16 43 34 -7 18 -72 23
-82 6z"/>
<path d="M5535 7590 c-11 -19 6 -30 46 -30 32 0 39 3 39 20 0 17 -7 20 -39 20
-22 0 -43 -4 -46 -10z"/>
<path d="M5962 7579 c-25 -13 -55 -39 -70 -62 -26 -39 -27 -46 -27 -171 0
-128 1 -132 29 -173 44 -66 90 -83 224 -83 105 0 112 1 112 20 0 19 -7 20 -92
20 -118 0 -159 12 -197 56 l-31 35 0 124 0 124 30 35 c72 81 206 73 273 -16
15 -20 21 -48 25 -116 6 -107 -1 -142 -27 -142 -17 0 -19 10 -23 98 -4 112
-17 143 -74 169 -31 15 -39 16 -76 3 -65 -24 -83 -56 -83 -154 0 -96 16 -129
73 -153 34 -14 41 -14 81 0 39 14 47 14 65 1 28 -19 49 -18 80 7 25 20 26 23
26 137 0 138 -17 187 -83 230 -57 38 -172 43 -235 11z m158 -139 c16 -16 20
-33 20 -95 0 -86 -18 -115 -70 -115 -52 0 -70 29 -70 115 0 86 18 115 70 115
17 0 39 -9 50 -20z"/>
<path d="M5534 7469 c-11 -18 11 -31 47 -27 23 2 35 9 37 21 3 14 -4 17 -37
17 -22 0 -43 -5 -47 -11z"/>
<path d="M5541 7361 c-24 -16 6 -43 43 -39 23 2 31 8 31 23 0 15 -8 21 -30 23
-16 1 -36 -2 -44 -7z"/>
<path d="M5535 7240 c-11 -19 6 -30 46 -30 32 0 39 3 39 20 0 17 -7 20 -39 20
-22 0 -43 -4 -46 -10z"/>
<path d="M5535 7120 c-11 -19 6 -30 46 -30 32 0 39 3 39 20 0 17 -7 20 -39 20
-22 0 -43 -4 -46 -10z"/>
<path d="M5540 7005 c-17 -21 -3 -35 36 -35 23 0 37 6 41 16 12 31 -53 47 -77
19z"/>
<path d="M5535 6890 c-10 -16 14 -40 39 -40 31 0 50 16 43 34 -7 18 -72 23
-82 6z"/>
<path d="M2400 6750 l0 -70 1350 0 1350 0 0 70 0 70 -1350 0 -1350 0 0 -70z"/>
<path d="M6900 6750 l0 -70 1350 0 1350 0 0 70 0 70 -1350 0 -1350 0 0 -70z"/>
<path d="M1200 5175 l0 -1195 4800 0 4800 0 0 1195 0 1195 -4800 0 -4800 0 0
-1195z m9450 0 l0 -1055 -4650 0 -4650 0 0 1055 0 1055 4650 0 4650 0 0 -1055z"/>
<path d="M3425 5522 c-46 -30 -71 -61 -105 -133 -59 -128 -110 -402 -94 -518
6 -49 6 -51 -22 -62 -59 -23 -211 -49 -287 -49 -151 0 -227 40 -227 120 0 34
6 48 33 75 37 37 116 65 183 65 50 0 67 17 62 62 -3 32 -4 33 -60 39 -94 10
-137 54 -123 126 14 79 161 131 245 88 35 -18 45 -49 36 -109 -8 -50 9 -76 49
-76 37 0 66 31 75 80 30 157 -117 252 -322 209 -113 -24 -196 -89 -218 -170
-19 -71 10 -143 73 -175 l31 -16 -45 -18 c-68 -25 -106 -58 -134 -114 -83
-166 64 -296 335 -296 85 0 245 27 300 51 l49 21 31 -30 c53 -54 134 -54 214
0 l46 30 30 -26 c64 -54 177 -58 270 -11 57 29 60 30 60 12 0 -20 33 -47 57
-47 29 0 48 26 73 105 37 117 101 220 115 183 3 -8 -1 -51 -9 -96 -21 -122 -4
-172 62 -189 35 -8 84 5 133 36 l45 28 27 -23 c63 -54 170 -55 264 -5 l56 31
28 -24 c94 -79 234 -45 290 70 88 183 -38 374 -206 310 -80 -31 -127 -100
-141 -206 -8 -65 -16 -77 -69 -101 -55 -25 -98 -24 -130 4 -49 42 -44 156 9
206 38 35 61 24 61 -28 0 -55 21 -72 59 -48 45 30 47 116 4 157 -68 63 -206
13 -257 -93 -12 -24 -24 -71 -27 -105 -6 -53 -11 -67 -37 -88 -65 -55 -76 -12
-44 168 20 108 15 133 -28 144 -60 15 -147 -51 -204 -156 -17 -30 -31 -52 -31
-47 0 4 9 48 20 98 11 50 18 95 15 100 -4 5 -20 9 -36 9 -60 0 -88 -56 -105
-208 -8 -68 -22 -87 -89 -118 -55 -26 -101 -30 -140 -12 -26 12 -35 38 -12 38
8 0 41 14 75 31 89 44 129 120 99 190 -28 67 -85 91 -165 70 -87 -24 -145
-104 -159 -221 -7 -58 -11 -66 -42 -87 -41 -28 -82 -29 -105 -4 -27 30 -23 51
28 129 134 205 202 413 176 538 -6 29 -19 63 -28 74 -25 30 -80 35 -117 12z
m56 -99 c23 -61 -16 -224 -89 -373 l-47 -95 -3 47 c-6 90 50 354 89 416 23 39
36 40 50 5z m263 -446 c15 -23 -8 -64 -53 -94 -46 -31 -61 -29 -61 8 0 81 79
142 114 86z m1193 -9 c20 -18 23 -31 23 -89 0 -58 -4 -72 -26 -98 -31 -37 -57
-39 -89 -6 -21 20 -25 34 -25 80 0 108 60 166 117 113z"/>
<path d="M5800 5533 c-26 -10 -61 -47 -81 -85 -26 -50 -65 -191 -74 -263 -10
-80 -16 -88 -70 -103 -60 -16 -136 -86 -165 -153 -27 -64 -30 -160 -6 -207 20
-39 70 -72 109 -72 41 0 95 28 120 61 l20 29 18 -30 c41 -66 110 -74 190 -21
l43 29 28 -24 c58 -48 173 -56 241 -16 41 23 77 77 77 114 0 47 -25 45 -80 -6
-41 -38 -56 -46 -87 -46 -38 0 -83 22 -83 41 0 5 8 9 18 9 37 0 141 60 160 93
29 47 35 90 19 128 -28 67 -85 91 -165 70 -87 -24 -147 -106 -158 -219 -6 -53
-12 -67 -36 -87 -37 -31 -62 -32 -82 -3 -27 38 -18 78 43 203 133 271 163 463
86 541 -23 23 -53 29 -85 17z m36 -94 c25 -42 -13 -246 -70 -370 l-24 -54 -1
45 c0 25 6 93 14 152 24 185 54 269 81 227z m-236 -661 c-82 -74 -132 14 -74
131 16 31 40 61 58 72 l31 19 8 -98 8 -97 -31 -27z m504 199 c15 -23 -8 -64
-53 -94 -46 -31 -61 -29 -61 8 0 81 79 142 114 86z"/>
<path d="M8665 5461 c-66 -41 -114 -122 -150 -256 l-22 -80 -42 -3 c-34 -3
-44 -8 -51 -28 -17 -43 5 -74 53 -74 l27 0 0 -78 0 -78 -42 -41 c-73 -71 -161
-99 -223 -71 -26 12 -35 38 -12 38 33 0 137 63 155 93 55 89 20 189 -70 203
-113 19 -216 -76 -234 -216 -8 -65 -16 -77 -69 -101 -55 -25 -98 -24 -130 4
-49 42 -44 156 9 206 38 35 61 24 61 -28 0 -30 5 -47 16 -54 26 -16 67 15 75
58 25 136 -130 182 -241 71 -47 -47 -61 -82 -73 -171 l-7 -60 -54 -27 c-58
-30 -105 -35 -146 -16 -26 12 -35 38 -12 38 33 0 137 63 155 93 55 89 20 189
-70 203 -118 20 -226 -86 -233 -229 -4 -70 -25 -97 -76 -97 -38 0 -71 32 -117
115 -25 45 -52 79 -76 94 l-36 24 34 12 c154 53 224 202 156 335 -41 81 -181
126 -321 102 -225 -39 -361 -221 -362 -487 -1 -106 20 -179 67 -232 80 -93
211 -95 249 -5 9 20 23 81 32 135 11 63 21 97 29 97 25 0 65 -49 105 -127 51
-103 81 -138 136 -159 58 -22 125 -13 179 22 31 21 43 24 55 15 55 -39 78 -46
151 -46 65 1 83 5 134 33 l59 32 29 -25 c38 -32 101 -49 160 -42 46 6 141 47
153 67 4 7 20 -1 41 -19 86 -76 240 -61 352 34 l31 26 15 -30 c49 -93 167
-105 255 -25 l39 34 17 -26 c45 -68 167 -81 255 -26 l46 29 27 -23 c56 -48
173 -56 240 -16 41 23 77 77 77 114 0 47 -25 45 -80 -6 -41 -38 -56 -46 -87
-46 -38 0 -83 22 -83 41 0 5 8 9 18 9 37 0 141 60 160 93 29 47 35 90 19 128
-28 67 -85 91 -165 70 -87 -24 -145 -104 -159 -221 -7 -58 -11 -66 -42 -87
-39 -27 -70 -29 -110 -8 -38 19 -51 60 -51 165 l0 88 89 4 c101 3 134 21 129
67 -3 24 -8 26 -55 29 l-52 3 35 50 c60 83 79 183 50 254 -42 99 -160 54 -229
-87 -15 -31 -37 -93 -49 -138 l-21 -80 -39 0 c-21 0 -38 3 -38 6 0 3 13 22 30
42 40 51 60 113 60 189 0 58 -3 68 -29 94 -34 34 -64 37 -106 10z m50 -101 c9
-40 -17 -124 -55 -182 -49 -74 -60 -70 -44 15 32 165 81 249 99 167z m293 -23
c4 -57 -35 -151 -80 -194 l-30 -28 7 45 c20 131 61 236 88 227 7 -2 13 -25 15
-50z m-1959 -11 c34 -18 61 -66 61 -109 0 -37 -42 -110 -77 -133 -31 -20 -100
-40 -109 -31 -2 2 3 41 11 86 9 45 13 91 10 102 -8 25 -48 34 -85 19 -32 -13
-41 -34 -60 -142 -11 -60 -15 -68 -34 -68 -50 0 -66 -71 -21 -92 24 -11 25
-15 19 -57 -4 -25 -12 -66 -18 -91 -9 -38 -15 -45 -36 -45 -20 0 -30 9 -47 45
-27 56 -33 120 -22 222 17 150 98 268 208 303 57 18 155 14 200 -9z m1725
-400 c-2 -103 -13 -129 -67 -161 -69 -41 -108 11 -115 158 l-5 97 94 0 94 0
-1 -94z m-1210 51 c15 -23 -8 -64 -53 -94 -46 -31 -61 -29 -61 8 0 81 79 142
114 86z m720 0 c15 -23 -8 -64 -53 -94 -46 -31 -61 -29 -61 8 0 81 79 142 114
86z m1040 0 c15 -23 -8 -64 -53 -94 -46 -31 -61 -29 -61 8 0 81 79 142 114 86z"/>
</g>
</svg>
